<?xml version="1.0" encoding="UTF-8"?>
<svg xmlns="http://www.w3.org/2000/svg" width="1000" height="600" viewBox="0 0 1000 600">
  <defs>
    <style>
      text { font-family: system-ui, -apple-system, 'Segoe UI', sans-serif; }
      .t-title { font-size: 20px; font-weight: 700; fill: #1f2328; }
      .t-sub  { font-size: 12px; fill: #6e7781; }
      .t-h    { font-size: 16px; font-weight: 700; fill: #1f2328; }
      .t-m    { font-size: 15px; font-weight: 700; fill: #1f2328; }
      .t-s    { font-size: 12px; fill: #6e7781; }
      .t-code { font-family: ui-monospace, 'SF Mono', Consolas, 'Liberation Mono', monospace; font-size: 14px; font-weight: 700; fill: #1f2328; }
      .panel  { fill: #f6f8fa; stroke: #d0d7de; stroke-width: 1.5; rx: 10; }
      .box    { fill: #ffffff; stroke: #d0d7de; stroke-width: 1.5; rx: 10; }
      .dot    { fill: #2f6fed; }
    </style>
  </defs>

  <rect width="1000" height="600" fill="#ffffff"/>

  <text x="500" y="36" text-anchor="middle" class="t-title">परियोजना अवलोकन</text>
  <text x="500" y="56" text-anchor="middle" class="t-sub">Open-Travel Monorepo Overview</text>

  <!-- 左：Monorepo 组成 -->
  <rect x="40" y="110" width="560" height="400" class="panel"/>
  <text x="60" y="140" class="t-h">Monorepo संरचना</text>
  <text x="60" y="160" class="t-s">एकल रेपो · मल्टी-प्लेटफ़ॉर्म · साझा कॉन्फ़िग</text>

  <rect x="60" y="180" width="250" height="112" class="box"/>
  <text x="76" y="206" class="t-code">apps/</text>
  <text x="76" y="230" class="t-s">मल्टी-प्लेटफ़ॉर्म क्लाइंट</text>
  <text x="76" y="252" class="t-s">Flutter · हारमनीओएस</text>
  <text x="76" y="274" class="t-s">12+ भाषाएँ i18n</text>

  <rect x="330" y="180" width="250" height="112" class="box"/>
  <text x="346" y="206" class="t-code">e-cat/</text>
  <text x="346" y="230" class="t-s">Rust माइक्रोसर्विस फ्रेमवर्क</text>
  <text x="346" y="252" class="t-s">51 crates · Kratos v3 बेंचमार्क</text>
  <text x="346" y="274" class="t-s">axum · tonic · SQLx</text>

  <rect x="60" y="312" width="115" height="78" class="box"/>
  <text x="76" y="340" class="t-code">docs/</text>
  <text x="76" y="364" class="t-s">तकनीकी दस्तावेज़</text>

  <rect x="192" y="312" width="115" height="78" class="box"/>
  <text x="208" y="340" class="t-code">config/</text>
  <text x="208" y="364" class="t-s">कॉन्फ़िग फ़ाइलें</text>

  <rect x="324" y="312" width="150" height="78" class="box"/>
  <text x="340" y="340" class="t-code">README.md</text>
  <text x="340" y="364" class="t-s">परियोजना विवरण</text>

  <rect x="60" y="410" width="520" height="80" class="box"/>
  <text x="76" y="438" class="t-m">इन्फ्रास्ट्रक्चर</text>
  <text x="76" y="462" class="t-s">HTTP axum · gRPC tonic · MySQL · Redis · OpenSearch · Kafka</text>
  <text x="76" y="480" class="t-s">सुरक्षा: ecat-security · ecat-auth · ecat-tls</text>

  <!-- 右：डेटा परत -->
  <rect x="620" y="110" width="340" height="170" class="panel"/>
  <text x="640" y="140" class="t-h">डेटा परत</text>
  <text x="640" y="160" class="t-s">Data Layer</text>
  <circle cx="652" cy="184" r="4" class="dot"/>
  <text x="664" y="188" class="t-s">MySQL — travel डीबी (travel_* प्रीफ़िक्स टेबल)</text>
  <circle cx="652" cy="212" r="4" class="dot"/>
  <text x="664" y="216" class="t-s">Redis — कैश · सत्र</text>
  <circle cx="652" cy="240" r="4" class="dot"/>
  <text x="664" y="244" class="t-s">OpenSearch — बहुभाषी खोज</text>

  <!-- 右：पारिस्थितिकी तंत्र -->
  <rect x="620" y="300" width="340" height="210" class="panel"/>
  <text x="640" y="330" class="t-h">पारिस्थितिकी तंत्र</text>
  <text x="640" y="350" class="t-s">Surroundings</text>
  <circle cx="652" cy="376" r="4" class="dot"/>
  <text x="664" y="380" class="t-s">CI/CD पाइपलाइन · स्वचालित टेस्ट</text>
  <circle cx="652" cy="404" r="4" class="dot"/>
  <text x="664" y="408" class="t-s">Docker / K8s कंटेनर डिप्लॉय</text>
  <circle cx="652" cy="432" r="4" class="dot"/>
  <text x="664" y="436" class="t-s">मॉनिटरिंग · लॉग संग्रह</text>
  <circle cx="652" cy="460" r="4" class="dot"/>
  <text x="664" y="464" class="t-s">Nginx API गेटवे सेवा रजिस्ट्री</text>

  <text x="500" y="558" text-anchor="middle" class="t-s">51 crates · 12+ भाषाएँ · मल्टी-प्लेटफ़ॉर्म (iOS / Android / Web / Desktop / HarmonyOS)</text>
  <text x="988" y="588" text-anchor="end" font-size="12" fill="#8b949e" fill-opacity="0.5" font-family="system-ui, -apple-system, 'Segoe UI', sans-serif">https://erik.xyz</text>
</svg>
